<svg width="2334" height="410" viewBox="0 0 2334 410" fill="none" xmlns="http://www.w3.org/2000/svg">
<line y1="-25" x2="225.843" y2="-25" transform="matrix(0.261244 -0.965273 0.965192 0.261543 49 365)" stroke="#FF0000" stroke-width="50"/>
<line y1="-25" x2="225.843" y2="-25" transform="matrix(0.261244 -0.965273 0.965192 0.261543 137.5 365)" stroke="black" stroke-width="50"/>
<line y1="-25" x2="225.843" y2="-25" transform="matrix(0.261244 -0.965273 0.965192 0.261543 226 365)" stroke="black" stroke-width="50"/>
<path d="M528 137V181.8H464C453.333 181.8 448 188.2 448 201V361H400V201C400 179.133 405.2 163 415.6 152.6C426 142.2 442.133 137 464 137H528ZM702.156 137C724.29 137 740.423 142.2 750.556 152.6C760.956 163 766.156 179.133 766.156 201V297C766.156 318.867 760.956 335 750.556 345.4C740.423 355.8 724.29 361 702.156 361H622.156C600.023 361 583.756 355.8 573.356 345.4C563.223 335 558.156 318.867 558.156 297V201C558.156 179.133 563.223 163 573.356 152.6C583.756 142.2 600.023 137 622.156 137H702.156ZM718.156 297V201C718.156 188.2 712.823 181.8 702.156 181.8H622.156C611.49 181.8 606.156 188.2 606.156 201V297C606.156 309.8 611.49 316.2 622.156 316.2H702.156C712.823 316.2 718.156 309.8 718.156 297ZM860.109 57V137H956.109C977.976 137 994.109 142.2 1004.51 152.6C1014.91 163 1020.11 179.133 1020.11 201V297C1020.11 318.867 1014.91 335 1004.51 345.4C994.109 355.8 977.976 361 956.109 361H876.109C854.243 361 838.109 355.8 827.709 345.4C817.309 335 812.109 318.867 812.109 297V57H860.109ZM876.109 316.2H956.109C966.776 316.2 972.109 309.8 972.109 297V201C972.109 188.2 966.776 181.8 956.109 181.8H860.109V297C860.109 309.8 865.443 316.2 876.109 316.2ZM1208.02 137C1230.15 137 1246.28 142.2 1256.42 152.6C1266.82 163 1272.02 179.133 1272.02 201V297C1272.02 318.867 1266.82 335 1256.42 345.4C1246.28 355.8 1230.15 361 1208.02 361H1128.02C1105.88 361 1089.62 355.8 1079.22 345.4C1069.08 335 1064.02 318.867 1064.02 297V201C1064.02 179.133 1069.08 163 1079.22 152.6C1089.62 142.2 1105.88 137 1128.02 137H1208.02ZM1224.02 297V201C1224.02 188.2 1218.68 181.8 1208.02 181.8H1128.02C1117.35 181.8 1112.02 188.2 1112.02 201V297C1112.02 309.8 1117.35 316.2 1128.02 316.2H1208.02C1218.68 316.2 1224.02 309.8 1224.02 297ZM1573.97 137C1595.84 137 1611.97 142.2 1622.37 152.6C1632.77 163 1637.97 179.133 1637.97 201V361H1589.97V201C1589.97 188.2 1584.64 181.8 1573.97 181.8H1517.97C1507.3 181.8 1501.97 188.2 1501.97 201V361H1453.97V201C1453.97 188.2 1448.64 181.8 1437.97 181.8H1381.97C1371.3 181.8 1365.97 188.2 1365.97 201V361H1317.97V201C1317.97 179.133 1323.17 163 1333.57 152.6C1343.97 142.2 1360.1 137 1381.97 137H1437.97C1448.1 137 1456.24 139 1462.37 143C1468.77 147 1472.64 151 1473.97 155L1475.97 161H1479.97C1479.97 160.467 1480.1 159.667 1480.37 158.6C1480.9 157.267 1481.97 155.267 1483.57 152.6C1485.17 149.933 1487.17 147.533 1489.57 145.4C1492.24 143.267 1495.97 141.4 1500.77 139.8C1505.84 137.933 1511.57 137 1517.97 137H1573.97ZM1825.94 137C1847.8 137 1863.94 142.2 1874.34 152.6C1884.74 163 1889.94 179.133 1889.94 201V297C1889.94 318.867 1884.74 335 1874.34 345.4C1863.94 355.8 1847.8 361 1825.94 361H1745.94C1724.07 361 1707.94 355.8 1697.54 345.4C1687.14 335 1681.94 318.867 1681.94 297C1681.94 287.4 1683.54 279.267 1686.74 272.6C1690.2 265.933 1695.4 260.6 1702.34 256.6C1709.54 252.333 1715.94 249.267 1721.54 247.4C1727.4 245.267 1735.54 242.867 1745.94 240.2L1841.94 216.2V201C1841.94 188.2 1836.6 181.8 1825.94 181.8H1745.94C1735.27 181.8 1729.94 188.2 1729.94 201V217H1681.94V201C1681.94 179.133 1687.14 163 1697.54 152.6C1707.94 142.2 1724.07 137 1745.94 137H1825.94ZM1841.94 297V253.8L1745.94 277.8C1738.74 279.667 1734.2 282.067 1732.34 285C1730.74 287.667 1729.94 291.667 1729.94 297C1729.94 309.8 1735.27 316.2 1745.94 316.2H1825.94C1836.6 316.2 1841.94 309.8 1841.94 297ZM2063.94 137V181.8H1999.94C1989.27 181.8 1983.94 188.2 1983.94 201V361H1935.94V201C1935.94 179.133 1941.14 163 1951.54 152.6C1961.94 142.2 1978.07 137 1999.94 137H2063.94ZM2152.09 316.2H2224.09V361H2152.09C2132.09 361 2117.69 356.733 2108.89 348.2C2100.36 339.4 2096.09 325 2096.09 305V97H2144.09V137H2216.09V181.8H2144.09V305C2144.09 309 2144.49 311.933 2145.29 313.8C2146.36 315.4 2148.63 316.2 2152.09 316.2Z" fill="black"/>
</svg>
